<svg width="338" height="338" viewBox="0 0 338 338" fill="none" xmlns="http://www.w3.org/2000/svg">
<g clip-path="url(#clip0_347_1215)">
<path d="M274.107 130.68C259.461 104.529 230.62 89.526 199.683 94.465C187.536 68.978 162.147 52.792 133.585 52.792C93.164 52.792 60.267 85.689 60.267 126.126C60.267 127.792 60.333 129.512 60.483 131.296C25.593 139.254 0 170.75 0 207.025C0 249.905 34.879 284.781 77.753 284.781H135.357H139.206H153.588V198.546L142.725 209.409C137.023 215.114 127.079 215.114 121.381 209.409C118.535 206.562 116.953 202.767 116.953 198.738C116.953 194.703 118.529 190.926 121.388 188.08L158.023 151.427C160.821 148.626 164.712 147.02 168.684 147.02L170.149 147.068C173.689 147.353 176.985 148.87 179.544 151.409L216.203 188.08C219.055 190.927 220.628 194.71 220.628 198.745C220.628 202.767 219.055 206.575 216.196 209.421C210.516 215.12 200.554 215.12 194.855 209.421L183.77 198.318V284.787H259.827C302.702 284.787 337.578 249.905 337.578 207.031C337.578 169.717 310.515 137.471 274.107 130.68Z" fill="#EF7712"/>
</g>
<defs>
<clipPath id="clip0_347_1215">
<rect width="337.578" height="337.579" fill="white"/>
</clipPath>
</defs>
</svg>
